<?xml version="1.0" encoding="UTF-8" standalone="no"?>
<!-- Created with Inkscape (http://www.inkscape.org/) -->

<svg
   width="64.600914mm"
   height="24.494371mm"
   viewBox="0 0 64.600914 24.494371"
   version="1.1"
   id="svg5"
   xml:space="preserve"
   sodipodi:docname="vibes.svg"
   inkscape:version="1.2.2 (b0a8486541, 2022-12-01)"
   xmlns:inkscape="http://www.inkscape.org/namespaces/inkscape"
   xmlns:sodipodi="http://sodipodi.sourceforge.net/DTD/sodipodi-0.dtd"
   xmlns="http://www.w3.org/2000/svg"
   xmlns:svg="http://www.w3.org/2000/svg"><sodipodi:namedview
     id="namedview7"
     pagecolor="#ffffff"
     bordercolor="#666666"
     borderopacity="1.0"
     inkscape:showpageshadow="2"
     inkscape:pageopacity="0.0"
     inkscape:pagecheckerboard="0"
     inkscape:deskcolor="#d1d1d1"
     inkscape:document-units="mm"
     showgrid="false"
     showguides="true"
     inkscape:zoom="1.6819304"
     inkscape:cx="83.832244"
     inkscape:cy="-20.512145"
     inkscape:window-width="1404"
     inkscape:window-height="875"
     inkscape:window-x="36"
     inkscape:window-y="0"
     inkscape:window-maximized="1"
     inkscape:current-layer="layer1" /><defs
     id="defs2" /><g
     inkscape:label="Layer 1"
     inkscape:groupmode="layer"
     id="layer1"
     transform="translate(-48.960759,-86.156867)"><g
       id="g1013"
       transform="matrix(0.99756031,0,0,1.0001168,0.11959752,-0.01149098)"><path
         style="fill:none;stroke:#000000;stroke-width:2.16958;stroke-linecap:round;stroke-linejoin:round;stroke-dasharray:none;stroke-opacity:1"
         d="m 50.045551,97.790315 c 0,0 7.067604,-24.131008 11.160718,0.528442 4.093119,24.659453 9.912166,0.256391 9.912166,0.256391 0,0 4.517383,-23.690262 9.422909,0.543322 4.905525,24.23359 15.360478,-1.32031 7.749706,-0.498579 -7.61077,0.82173 -7.091241,2.742539 -7.091241,2.742539"
         id="path324" /><path
         style="fill:none;stroke:#000000;stroke-width:2.16958;stroke-linecap:round;stroke-linejoin:round;stroke-dasharray:none;stroke-opacity:1"
         d="m 94.343001,105.4877 c 8.809319,-5.03391 7.236219,-3.93274 7.236219,-3.93274 0,0 2.51695,-1.25848 0.31462,-2.359643 -2.202327,-1.101164 -8.494695,-0.943856 -7.550839,6.292383 z m 0.15731,0 c 0,0 -0.09617,2.28475 1.791544,3.2286 1.887712,0.94386 5.820435,0.15731 6.921605,-2.20233"
         id="path326" /><path
         style="fill:none;stroke:#000000;stroke-width:2.16958;stroke-linecap:round;stroke-linejoin:round;stroke-dasharray:none;stroke-opacity:1"
         d="m 112.35566,101.01477 c 0,0 -2.39995,-3.16871 -4.15991,-2.342089 -1.75996,0.826618 -2.39995,3.995339 1.59997,4.959729 3.9999,0.96439 2.87993,4.68418 0.79998,5.23526 -2.07996,0.55109 -3.99992,-2.47986 -3.99992,-2.47986"
         id="path328" /><path
         style="fill:none;stroke:#000000;stroke-width:2.16958;stroke-linecap:round;stroke-linejoin:round;stroke-dasharray:none;stroke-opacity:1"
         d="m 75.729613,109.30059 v -9.12394"
         id="path330" /></g></g></svg>
