<?xml version="1.0" encoding="UTF-8" standalone="no"?>
<svg
   width="582"
   height="199"
   viewBox="0 0 582 199"
   fill="none"
   version="1.1"
   id="svg9761"
   sodipodi:docname="vibes_logo.svg"
   inkscape:version="1.2.2 (b0a8486541, 2022-12-01)"
   xmlns:inkscape="http://www.inkscape.org/namespaces/inkscape"
   xmlns:sodipodi="http://sodipodi.sourceforge.net/DTD/sodipodi-0.dtd"
   xmlns="http://www.w3.org/2000/svg"
   xmlns:svg="http://www.w3.org/2000/svg">
  <defs
     id="defs9765" />
  <sodipodi:namedview
     id="namedview9763"
     pagecolor="#ffffff"
     bordercolor="#666666"
     borderopacity="1.0"
     inkscape:showpageshadow="2"
     inkscape:pageopacity="0.0"
     inkscape:pagecheckerboard="0"
     inkscape:deskcolor="#d1d1d1"
     showgrid="false"
     inkscape:zoom="0.8385789"
     inkscape:cx="322.56953"
     inkscape:cy="-47.103499"
     inkscape:window-width="1404"
     inkscape:window-height="875"
     inkscape:window-x="36"
     inkscape:window-y="0"
     inkscape:window-maximized="1"
     inkscape:current-layer="svg9761" />
  <path
     d="M392.748 162.226L446.378 132.783C446.378 132.783 452.363 130.944 451.568 125.855C450.523 119.172 442.372 114.239 435.998 111.999C428.986 109.534 422.158 108.906 416.968 110.267C411.122 111.8 407.582 114.839 403.128 118.927C398 123.632 396.873 126.245 394.478 132.783C392.106 139.259 390.56 144.952 391.018 151.834C391.247 155.275 392.748 162.226 392.748 162.226ZM392.748 162.226C392.748 162.226 396.709 170.938 401.398 176.082C408.123 183.458 413.971 185.39 423.888 186.474C431.397 187.294 436.184 186.436 442.918 183.01C448.47 180.184 454.017 174.217 458.488 169.875"
     stroke="black"
     stroke-width="23"
     id="path9743"
     style="stroke-linecap:round;stroke-linejoin:bevel" />
  <circle
     cx="459.5"
     cy="168.5"
     r="11.5"
     fill="black"
     id="circle9745" />
  <circle
     cx="541.5"
     cy="124.5"
     r="11.5"
     fill="black"
     id="circle9747" />
  <circle
     cx="570.5"
     cy="186.5"
     r="11.5"
     fill="black"
     id="circle9749" />
  <path
     d="m 16.372881,106.45232 0.9692,-2.906 0.9692,-2.9075 0.9691,-2.905198 0.9692,-2.8996 0.9692,-2.8906 0.9692,-2.8781 0.9691,-2.8622 0.9692,-2.8429 0.9692,-2.8202 0.9692,-2.7942 0.9692,-2.7648 0.9691,-2.7321 0.9692,-2.6964 0.9692,-2.6572 0.9692,-2.6148 0.9692,-2.5696 0.9691,-2.5211 0.9692,-2.4697 0.9692,-2.4154 0.9692,-2.3581 0.9691,-2.298 0.9692,-2.2353 0.9692,-2.1699 0.9692,-2.1019 0.9692,-2.0314 0.9691,-1.9584 0.9692,-1.8832 0.9692,-1.8058 0.9692,-1.726 0.9692,-1.6445 0.9691,-1.5607 0.9692,-1.4753 0.9692,-1.388 0.9692,-1.2992 0.9691,-1.2086 0.9692,-1.1168 0.9692,-1.0236 0.9692,-0.9292 0.9692,-0.8336 0.9691,-0.7371 0.9692,-0.6397 0.9692,-0.5416 0.9692,-0.4428 0.9691,-0.3434 0.9692,-0.2437 0.9692,-0.1436 0.9692,-0.0435 0.9692,0.0568 0.9691,0.157 0.9692,0.2569 0.9692,0.3567 0.9692,0.4559 0.9692,0.5547 0.9691,0.6527 0.9692,0.75 0.9692,0.8463 0.9692,0.9419 0.9691,1.036 0.9692,1.1291 0.9692,1.2208 0.9692,1.311 0.9692,1.3998 0.9691,1.4867 0.9692,1.572 0.9692,1.6554 0.9692,1.7367 0.9692,1.8163 0.9691,1.8933 0.9692,1.9683 0.9692,2.0409 0.9692,2.111 0.9691,2.1787 0.9692,2.2439 0.9692,2.3062 0.9692,2.3659 0.9692,2.4227 0.9691,2.4767 0.9692,2.5277 0.9692,2.5758 0.9692,2.6207 0.9691,2.6626 0.9692,2.7012 0.9692,2.7367 0.9692,2.7689 0.9692,2.7978 0.9691,2.8234 0.969199,2.8456 0.9692,2.8646 0.9692,2.88 0.9691,2.892 0.969,2.9005 0.969,2.905698 0.97,2.9075 0.969,2.9055 0.969,2.9 0.969,2.892 0.969,2.879 0.969,2.864 0.97,2.846 0.969,2.823 0.969,2.797 0.969,2.768 0.969,2.736 0.97,2.7 0.969,2.662 0.969,2.619 0.969,2.574 0.969,2.527 0.969,2.475 0.97,2.421 0.969,2.365 0.969,2.304 0.969,2.243 0.969,2.176 0.97,2.109 0.969,2.039 0.969,1.967 0.969,1.891 0.969,1.814 0.969,1.735 0.97,1.653 0.969,1.569 0.969,1.485 0.969,1.398 0.969,1.308 0.969,1.218 0.97,1.128 0.969,1.033 0.969,0.939 0.969,0.844 0.969,0.747 0.97,0.65 0.969,0.552 0.969,0.454 0.969,0.353 0.969,0.255 0.969,0.154 0.97,0.055 0.969,-0.047 0.969,-0.146 0.969,-0.246 0.969,-0.346 0.97,-0.446 0.969,-0.544 0.969,-0.643 0.969,-0.739 0.969,-0.836 0.969,-0.932 0.97,-1.026 0.969,-1.12 0.969,-1.211 0.969,-1.302 0.969,-1.389 0.969,-1.478 0.97,-1.563 0.969,-1.646 0.969,-1.729 0.969,-1.808 0.969,-1.885 0.97,-1.961 0.969,-2.033 0.969,-2.104 0.969,-2.171 0.969,-2.237 0.969,-2.3 0.97,-2.36 0.969,-2.417 0.969,-2.47 0.969,-2.523 0.969,-2.571 0.97,-2.616 0.969,-2.659 0.969,-2.697 0.969,-2.733 0.969,-2.765 0.969,-2.795 0.97,-2.821 0.969,-2.844 0.969,-2.862 0.969,-2.878 0.969,-2.891 0.969,-2.9 0.97,-2.9057 0.969,-2.9074 0.969,-2.905998 0.969,-2.901 0.969,-2.8928 0.97,-2.8811 0.969,-2.8659 0.969,-2.8472 0.969,-2.8254 0.969,-2.7999 0.969,-2.7714 0.97,-2.7393 0.969,-2.7042 0.969,-2.6657 0.969,-2.6242 0.969,-2.5794 0.969,-2.5317 0.97,-2.4808 0.969,-2.4271 0.969,-2.3706 0.969,-2.3111 0.969,-2.2487 0.97,-2.1841 0.969,-2.1165 0.969,-2.0466 0.969,-1.9741 0.969,-1.8994 0.969,-1.8224 0.97,-1.7431 0.969,-1.662 0.969,-1.5787 0.969,-1.4936 0.969,-1.4066 0.97,-1.3181 0.969,-1.2281 0.969,-1.1364 0.969,-1.0435 0.969,-0.9493 0.969,-0.854 0.97,-0.7577 0.969,-0.6605 0.969,-0.5624 0.969,-0.4638 0.969,-0.3646 0.969,-0.2649 0.97,-0.1649 0.969,-0.0647 0.969,0.0355 0.969,0.1357 0.969,0.2357 0.97,0.3355 0.969,0.4349 0.969,0.5337 0.969,0.632 0.969,0.7294 0.969,0.826 0.97,0.9216 0.969,1.0162 0.969,1.1094 0.969,1.2014 0.969,1.292 0.97,1.3811 0.969,1.4684 0.969,1.5541 0.969,1.6378 0.969,1.7197 0.969,1.7994 0.97,1.8772 0.969,1.9526 0.969,2.0255 0.969,2.0965 0.969,2.1645 0.969,2.2302 0.97,2.2932 0.969,2.3534 0.969,2.411 0.969,2.4655 0.969,2.517 0.97,2.5658 0.969,2.6115 0.969,2.6539 0.969,2.6933 0.969,2.7294 0.969,2.7624 0.97,2.792 0.969,2.8183 0.969,2.8411 0.969,2.8608 0.969,2.877 0.97,2.8897 0.969,2.899 0.969,2.904998 0.969,2.9073 0.969,2.906 0.969,2.902 0.97,2.893 0.969,2.884 0.969,2.867 0.969,2.849 0.969,2.828 0.969,2.803 0.97,2.775 0.969,2.742 0.969,2.708 0.969,2.67 0.969,2.629 0.97,2.585 0.969,2.536 0.969,2.487 0.969,2.433 0.969,2.377 0.969,2.317 0.97,2.256 0.969,2.191 0.969,2.123 0.969,2.055 0.969,1.981 0.97,1.908 0.969,1.83 0.969,1.752 0.969,1.671 0.969,1.588 0.969,1.502 0.97,1.416 0.969,1.328 0.969,1.237 0.969,1.147 0.969,1.053 0.969,0.96 0.97,0.863 0.969,0.769 0.969,0.671 0.969,0.572 0.969,0.474 0.97,0.375 0.969,0.277 0.969,0.175 0.969,0.075 0.969,-0.025 0.969,-0.125 0.97,-0.225 0.969,-0.325 0.969,-0.425 0.969,-0.523 0.969,-0.621 0.97,-0.719 0.969,-0.816 0.969,-0.911 0.969,-1.006 0.969,-1.1 0.969,-1.192 0.97,-1.283 0.969,-1.371 0.969,-1.46 0.969,-1.545 0.969,-1.628 0.969,-1.711 0.97,-1.791 0.969,-1.87 0.969,-1.944 0.969,-2.018 0.969,-2.089 0.97,-2.158 v 0 C 363.85303,118.7751 321.51951,85.981528 294.6884,134.27752"
     stroke="#000000"
     stroke-width="25"
     stroke-miterlimit="10"
     stroke-linecap="round"
     stroke-linejoin="round"
     id="path9751" />
  <path
     d="M234.942 181.699V113.857"
     stroke="black"
     stroke-width="25"
     stroke-linecap="round"
     id="path9753" />
  <circle
     cx="490"
     cy="174"
     r="12"
     fill="black"
     id="circle9757" />
  <path
     d="M542 126.634C542 126.634 541.542 122.575 537.814 118.611C532.954 113.441 525.036 112.22 517.92 112.02C510.896 111.821 505.762 113.118 500.236 116.414C495.92 118.988 494.107 121.322 493.604 126.3C493.154 130.757 494.334 133.617 496.92 137.285C500.361 142.166 504.755 142.444 510.183 144.975C515.992 147.684 519.928 147.594 525.657 150.468C531.214 153.255 536.136 153.722 538.92 159.256C541.429 164.244 540.924 168.327 538.92 173.536C537.378 177.544 536.8 178.592 533.393 181.226C529.084 184.558 525.555 186.1 520.13 186.719C514.967 187.308 511.88 186.986 506.867 185.62C502.768 184.503 500.255 183.847 496.92 181.226C492.506 177.756 491.304 177.854 489 170.994"
     stroke="black"
     stroke-width="23"
     id="path9759" />
</svg>
